<svg xmlns="http://www.w3.org/2000/svg" viewBox="0 0 125.57 135.83"><title>&#x8D44;&#x6E90; 93</title><path d="M102.75 39.88L120.88 18a87.36 87.36 0 0 0-10.51-7.69 62.79 62.79 0 0 0-11.63-5.62 76.28 76.28 0 0 0-13.42-3.47A97 97 0 0 0 69.28 0 69.64 69.64 0 0 0 41.7 5.35 67.27 67.27 0 0 0 21 19a57.6 57.6 0 0 1 23.5-3.22c16 .86 33.82 7.06 49.89 17.9 2.82 1.91 5.63 4 8.39 6.24z" fill="#fa7c1f"/><path d="M125.57 115V58h-57v25h29.04v18.89q-11.07 7.92-27.21 7.94c-16.84 0-30.84-9.28-36.86-25.11-5.8-15.22-3.14-33.93 8.06-45.94a39.81 39.81 0 0 1 12-8.85A33.29 33.29 0 0 1 67 26.67a82.64 82.64 0 0 0-22.84-4.76C.33 19.53-7.06 64.65 5.49 95.31c20 48.91 83.26 51.07 120.08 19.7z" fill="#333"/></svg>